<?xml version="1.0" encoding="UTF-8"?>
<svg id="Capa_1" xmlns="http://www.w3.org/2000/svg" version="1.1" viewBox="0 0 200 200">
  <!-- Generator: Adobe Illustrator 29.5.1, SVG Export Plug-In . SVG Version: 2.1.0 Build 141)  -->
  <defs>
    <style>
      .st0 {
        fill: none;
        stroke: #fff;
        stroke-miterlimit: 10;
        stroke-width: 5px;
      }

      .st1 {
        fill: #fff;
      }
    </style>
  </defs>
  <path class="st0" d="M84.4,35.9h34.4c31.8,0,57.7,25.8,57.7,57.7H26.8c0-31.8,25.8-57.7,57.7-57.7Z"/>
  <path class="st0" d="M26.8,133.1h149.8c0,17.1-13.9,31.1-31.1,31.1H57.8c-17.1,0-31.1-13.9-31.1-31.1h0Z"/>
  <rect class="st0" x="18.5" y="117.1" width="168.4" height="16" rx="6.6" ry="6.6"/>
  <rect class="st0" x="7" y="106.9" width="186" height="10.2" rx="4.2" ry="4.2"/>
  <rect class="st0" x="72.8" y="94.7" width="54.3" height="10.2" rx="4.2" ry="4.2"/>
  <rect class="st0" x="18.5" y="94.7" width="54.3" height="10.2" rx="4.2" ry="4.2"/>
  <rect class="st0" x="127.2" y="94.7" width="54.3" height="10.2" rx="4.2" ry="4.2"/>
  <path class="st1" d="M74,57h3.4c.5,0,1-.2,1.3-.5s.6-.8.5-1.3-.2-1-.5-1.3-.8-.5-1.3-.5h-3.4c-.5,0-1,.2-1.3.5s-.6.8-.5,1.3.2,1,.5,1.3c.4.3.8.5,1.3.5h0Z"/>
  <path class="st1" d="M96.1,57h5.2c1,0,1.9-.8,1.8-1.8s-.8-1.8-1.8-1.8h-5.2c-1,0-1.9.8-1.8,1.8s.8,1.8,1.8,1.8h0Z"/>
  <path class="st1" d="M121.6,49.1h4.4c.5,0,1-.2,1.3-.5s.6-.8.5-1.3c0-1-.8-1.8-1.8-1.8h-4.4c-.5,0-1,.2-1.3.5s-.6.8-.5,1.3c0,1,.8,1.8,1.8,1.8h0Z"/>
  <path class="st1" d="M147.2,60.8h3.4c.5,0,1-.2,1.3-.5s.6-.8.5-1.3-.2-1-.5-1.3-.8-.5-1.3-.5h-3.4c-.5,0-1,.2-1.3.5s-.6.8-.5,1.3.2,1,.5,1.3.8.5,1.3.5h0Z"/>
  <path class="st1" d="M131.6,73h1.8c.3,0,.5,0,.7-.2.2,0,.4-.2.6-.4.2-.2.3-.4.4-.6.1-.2.2-.5.2-.7v-.5c-.1-.3-.3-.6-.5-.8-.4-.3-.8-.5-1.3-.5h-1.8c-.3,0-.5,0-.7.2-.2,0-.4.2-.6.4-.2.2-.3.4-.4.6-.1.2-.2.5-.2.7v.5c.1.3.3.6.5.8.4.3.8.5,1.3.5h0Z"/>
  <path class="st1" d="M101.7,69.9h4.1c.5,0,1-.2,1.3-.5s.6-.8.5-1.3c0-1-.8-1.8-1.8-1.8h-4.1c-.5,0-1,.2-1.3.5s-.6.8-.5,1.3c0,1,.8,1.8,1.8,1.8h0Z"/>
  <path class="st1" d="M53,69.9h4.6c1,0,1.9-.8,1.8-1.8s-.8-1.8-1.8-1.8h-4.6c-1,0-1.9.8-1.8,1.8s.8,1.8,1.8,1.8h0Z"/>
</svg>