<?xml version="1.0" encoding="UTF-8"?><svg id="Capa_1" xmlns="http://www.w3.org/2000/svg" width="200" height="200" viewBox="0 0 200 200"><path d="M35.98,42.68h128.03c2.01,0,3.64,1.63,3.64,3.64v103.09c0,4.92-4,8.92-8.92,8.92H41.26c-4.92,0-8.92-4-8.92-8.92V46.33c0-2.01,1.63-3.64,3.64-3.64Z" fill="none" stroke="#fff" stroke-miterlimit="10" stroke-width="5"/><path d="M32.34,100.59s14.28,13.95,41.91,16.35,31.56-13.95,47.56-25.66c11.02-8.07,31.45-3.45,45.84-1.74" fill="none" fill-rule="evenodd" stroke="#fff" stroke-miterlimit="10" stroke-width="5"/><rect x="32.34" y="42.68" width="67.27" height="35.62" rx="3.13" ry="3.13" fill="none" stroke="#fff" stroke-miterlimit="10" stroke-width="5"/><rect x="100" y="42.68" width="67.66" height="35.62" rx="3.75" ry="3.75" fill="none" stroke="#fff" stroke-miterlimit="10" stroke-width="5"/><path d="M38.87,31.19h122.05c2.08,0,3.76,1.69,3.76,3.76v7.73H35.11v-7.73c0-2.08,1.69-3.76,3.76-3.76Z" fill="none" stroke="#fff" stroke-miterlimit="10" stroke-width="5"/><path d="M41.36,158.33h7.11v8.51c0,1.09-.88,1.97-1.97,1.97h-3.17c-1.09,0-1.97-.88-1.97-1.97v-8.51h0Z" fill="none" stroke="#fff" stroke-miterlimit="10" stroke-width="5"/><path d="M151.93,158.33h7.11v8.51c0,1.09-.88,1.97-1.97,1.97h-3.17c-1.09,0-1.97-.88-1.97-1.97v-8.51h0Z" fill="none" stroke="#fff" stroke-miterlimit="10" stroke-width="5"/></svg>