<?xml version="1.0" encoding="UTF-8"?><svg id="Capa_1" xmlns="http://www.w3.org/2000/svg" width="200" height="200" viewBox="0 0 200 200"><circle cx="106.63" cy="84.01" r="48.28" fill="none" stroke="#fff" stroke-miterlimit="10" stroke-width="5"/><path d="M132.06,131.02h52.86c4.37,0,7.92,3.55,7.92,7.92v1.77c0,4.37-3.55,7.92-7.92,7.92h-52.86v-17.62h0Z" transform="translate(146.46 -73.92) rotate(45)" fill="none" stroke="#fff" stroke-miterlimit="10" stroke-width="5"/><circle cx="30.9" cy="122.04" r="17.79" transform="translate(-91.91 149.72) rotate(-88.49)" fill="none" stroke="#fff" stroke-miterlimit="10" stroke-width="5"/><path d="M105.57,87.09c.19.21.36.43.54.65.25.31-.13-.18.14.19.1.13.2.26.29.39.27.38.54.76.79,1.14,1.33,2.01,2.47,4.18,3.23,6.47.9,2.71,1.32,5.65.75,8.48-.73,3.65-2.88,6.69-5.66,9.09-2.94,2.54-6.46,4.44-10.33,5-3.26.47-6.58.01-9.73-.82-6.64-1.75-12.73-5.06-19.25-7.16-3.34-1.08-6.92-1.86-10.45-1.52-3.77.36-7.1,1.95-9.93,4.45-1.45,1.28.68,3.39,2.12,2.12,2.4-2.12,5.32-3.46,8.54-3.62s6.22.58,9.18,1.55c6.77,2.22,13.1,5.73,20.08,7.35,3.46.8,7,1.09,10.51.5,4.04-.68,7.65-2.68,10.8-5.24s5.58-5.78,6.7-9.61c.93-3.18.83-6.59.03-9.79-1.06-4.25-3.31-8.48-6.23-11.76-1.29-1.45-3.4.68-2.12,2.12h0Z" fill="#fff"/></svg>