<?xml version="1.0" encoding="UTF-8"?><svg id="Capa_1" xmlns="http://www.w3.org/2000/svg" width="149.47" height="127.04" viewBox="0 0 149.47 127.04"><path d="M137.72,52.95c-.04-11.85-5.56-22.39-13.18-31.17-4.02-4.63-8.64-8.45-13.89-11.61-2.66-1.6-5.41-3.05-8.18-4.44s-5.62-2.85-8.66-3.72c-5.99-1.7-12.3-1.68-18.48-1.65-6.5.03-13.18-.93-19.63.17-3.18.54-6.22,1.81-9.07,3.3-1.39.73-2.69,1.59-4.06,2.35s-3.04,1.19-4.49,1.95c-1.37.72-2.52,1.76-3.73,2.7s-2.47,1.9-3.64,2.97-2.57,1.76-3.78,2.76-2.35,2.21-3.41,3.4c-2.3,2.58-4.32,5.4-6.32,8.22-1.86,2.62-4.47,4.79-5.44,7.93-.52,1.67-.81,3.4-1.15,5.12s-.43,3.45-.86,5.12c-.38,1.46-.82,2.69-.71,4.22.09,1.15.66,3.11-.2,4.08-1.28,1.44.83,3.57,2.12,2.12,1.82-2.04,1.08-4.41,1.04-6.87-.02-1.23.58-2.36.8-3.56.29-1.57.47-3.16.78-4.73.28-1.43.54-2.88.94-4.29s1.1-2.5,2.08-3.61c1.91-2.17,3.51-4.52,5.22-6.85,1.81-2.47,3.73-4.86,5.93-6.99,1.06-1.03,2.24-1.76,3.44-2.61,1.3-.92,2.34-2.14,3.62-3.07,1.14-.83,2.22-1.75,3.36-2.58,1.34-.97,2.83-1.48,4.34-2.11,2.89-1.21,5.43-3.14,8.32-4.37,5.91-2.53,12.07-2.09,18.35-1.84s12.22-.22,18.3.52c3.02.37,6.05,1.07,8.85,2.26s5.39,2.61,8.02,4c5.23,2.77,10.32,5.91,14.57,10.08,8.87,8.68,15.75,20.11,15.8,32.81,0,1.93,3.01,1.93,3,0h0Z"/><path d="M8.11,56.47c1.23.26,2.3.73,3.57.79,1.51.07,3.04-.03,4.55-.05,1.41-.02,2.82-.08,4.23-.07.72,0,1.5-.04,2.2.12.57.13,1.1.4,1.67.53,1.32.29,2.66.21,3.98.52,1.57.37,3.11.82,4.68,1.2,2.89.7,5.84,1.07,8.78,1.53s5.74,1.07,8.7,1.09,5.76-.09,8.64-.09h9.29c2.89,0,5.97-.32,8.83.15s5.49,1.78,8.44,2.04,5.63.14,8.45.03,5.44-.31,8.15.18,5.16,1.17,7.79.96c2.82-.23,5.48-1.46,8.21-2.16,1.41-.36,2.77-.56,4.23-.54,1.59.02,3.2.2,4.79.05,2.26-.21,3.42-1.49,4.76-3.14,1.48-1.82,3.5-2.54,5.77-2.92,1.04-.18,2.07-.26,3.1-.53.86-.23,2.36-.87,3.21-.33,1.32.84-.13,3.83-.61,4.84-1.06,2.21-2.96,3.8-4.33,5.8-.65.95-1.21,2-2.05,2.8-1.03.98-2.39,1.28-3.72,1.64-1.2.32-2.32.89-3.52,1.18-1.34.32-2.82.25-4.18.21s-2.58-.2-3.88-.5c-1.22-.28-2.53-.55-3.78-.27-.87.2-1.6.72-2.36,1.17-1.04.61-2.08,1.22-3.15,1.79-2.35,1.25-4.55,2.02-7.23,1.99-2.51-.03-5.38-.65-7.85.04-1.06.29-1.91.96-2.63,1.76-.9.99-1.64,1.58-3.05,1.68-2.74.2-5.1-1.44-7.34-2.78-2.36-1.41-4.72-2.82-7.19-4.02s-4.95-2.29-7.71-2.41c-2.91-.13-5.86-.03-8.78-.03-2.5,0-4.89.32-7.34.82s-4.73,1.04-7.15.93c-2.55-.11-4.17-1.42-6.2-2.78s-4.3-2.4-6.66-3.25c-1.2-.43-2.31-1.06-3.51-1.5-1.27-.46-2.53-.5-3.87-.43-2.69.13-5.55.56-8.02-.71s-4.42-3.13-7.26-2.56c-1.73.34-3.34,1.06-5.11,1.29-.68.09-1.44.16-2.11.03-.15-.03-.35-.07-.48-.14,0,0,0-.11-.03.01.18-.82,2.55-1.72,3.29-2.13,1.22-.68,2.48-1.43,2.98-2.81.65-1.82-2.24-2.6-2.89-.8.12-.33-.14.1-.29.22-.23.19-.52.34-.78.49-.72.43-1.48.8-2.2,1.22-1.35.78-2.94,1.84-3.09,3.54-.37,4.31,5.65,3.51,8.19,2.91.78-.18,1.53-.42,2.29-.66.63-.2,1.28-.41,1.95-.25.79.19,1.51.82,2.19,1.24,2.48,1.5,4.83,2.34,7.75,2.24,1.35-.05,2.7-.1,4.05-.15,1.52-.06,2.67.33,4.04.95,2.44,1.11,4.96,1.86,7.25,3.31s4.03,3.05,6.68,3.52c2.38.42,4.78.12,7.13-.31s4.83-1.12,7.3-1.21c3.11-.12,6.24.02,9.35-.01s5.61,1.04,8.32,2.41,5.06,2.83,7.55,4.31c2.35,1.39,4.89,2.65,7.7,2.5,1.18-.07,2.42-.33,3.44-.95s1.56-1.78,2.56-2.38,2.44-.36,3.51-.32c1.49.05,2.97.19,4.46.18,2.75-.01,5.14-.79,7.58-2.02,1.11-.56,2.19-1.19,3.26-1.81.82-.48,1.65-1.22,2.63-1.23,1.35-.01,2.66.55,3.99.72,1.46.18,2.97.21,4.44.17,2.74-.07,5.16-1.05,7.76-1.82,2.78-.82,4.39-2.49,5.95-4.85,1.4-2.13,3.44-3.82,4.59-6.11.89-1.76,1.74-3.84,1.64-5.85-.12-2.4-1.95-4.06-4.36-4.01-1.18.03-2.32.41-3.45.69-1.21.3-2.46.34-3.68.62-2.26.5-4.45,1.48-5.97,3.28-.58.69-1.08,1.59-1.82,2.11-1.05.74-2.68.45-3.88.4-1.51-.06-3-.13-4.5.08-1.58.22-3.12.66-4.63,1.12-2.83.86-5.33,1.74-8.32,1.31-2.71-.39-5.33-1.17-8.09-1.17-3.04,0-6.07.26-9.11.27-1.36,0-2.72-.03-4.07-.15-1.73-.15-3.34-.68-4.98-1.21-2.82-.91-5.52-1.02-8.45-.98-6.41.08-12.83-.09-19.24.07-1.37.03-2.75.06-4.12,0-1.65-.09-3.25-.43-4.88-.71-3.09-.52-6.21-.88-9.27-1.55s-6-1.6-9.15-1.9c-1.12-.1-2.12-.65-3.25-.75-1.63-.14-3.29-.05-4.93-.01-1.46.03-2.91.05-4.37.08-.73.01-1.5.05-2.22-.11-.65-.15-1.26-.44-1.91-.57-1.88-.39-2.69,2.5-.8,2.89h0Z"/><path d="M48.55,21.32c1.93,0,1.93-3,0-3s-1.93,3,0,3h0Z"/><path d="M79.61,22.01c1.93,0,1.93-3,0-3s-1.93,3,0,3h0Z"/><path d="M80.99,44.1c1.93,0,1.93-3,0-3s-1.93,3,0,3h0Z"/><path d="M99.63,30.98c1.93,0,1.93-3,0-3s-1.93,3,0,3h0Z"/><path d="M58.9,34.43c1.93,0,1.93-3,0-3s-1.93,3,0,3h0Z"/><path d="M17.75,67.42c-.9,2.46-1.43,5.1-1.44,7.73,0,1.75.13,3.94,1.29,5.37.58.71,1.25.89,2.09,1.15,1.1.34,2.12.86,3.1,1.44,2.04,1.2,3.91,2.68,5.98,3.84,2.25,1.26,4.52,1.7,7,2.28,2.83.67,5.58,1.6,8.36,2.42,5.61,1.65,11.43,2.57,16.95,4.53s10.98,2.61,16.78,2.63,11.59-.21,17.4.01c2.82.11,5.63.13,8.43-.3,3.04-.46,6.03-.67,9.11-.65s5.89.16,8.83.19c2.66.02,5.03-1.24,7.26-2.59,1.19-.72,2.24-1.65,3.48-2.29.99-.5,2.08-.81,2.9-1.6,1.85-1.78,1.26-4.54-.07-6.43s-3.12-3.35-4.77-4.9c-2.09-1.96-4.87-2.96-6.97-4.9-1.42-1.31-3.54.81-2.12,2.12,1.73,1.6,3.84,2.6,5.75,3.93,1.51,1.05,2.9,2.49,4.21,3.79.8.8,3.09,3.04,1.85,4.26-.54.53-1.49.74-2.16,1.06-1.11.54-2.07,1.34-3.1,2.02-2.03,1.34-4.23,2.59-6.72,2.5-2.71-.1-5.43-.16-8.14-.17s-5.44.06-8.14.44-5.16.63-7.82.57-5.22-.25-7.83-.25-5.31.09-7.97.15c-5.35.11-10.79.09-15.99-1.34-2.5-.69-4.9-1.69-7.4-2.39-2.67-.75-5.37-1.35-8.07-2-5.23-1.25-10.28-3.13-15.56-4.18-4.72-.94-8.08-4.76-12.42-6.58-.55-.23-1.13-.49-1.72-.61s-.12.14-.27-.13c-.4-.68-.48-1.59-.53-2.35-.17-2.72.36-5.43,1.3-7.98.67-1.81-2.23-2.6-2.89-.8h0Z"/><path d="M11.45,87.35c-2.53,3.38,1.99,6.31,4.79,7.08,1.6.44,3.27.59,4.92.73,1.92.16,3.71.86,5.49,1.58,3.87,1.57,7.64,3.31,11.48,4.95,1.72.74,3.47,1.44,5.33,1.7,1.96.28,4.03.25,6.01.16,2.24-.1,4.46-.54,6.66-.93,1.09-.2,2.16-.48,3.15-1,.79-.42,1.46-1.03,2.4-.92,1.91.23,1.9-2.77,0-3-2.03-.24-3.58,1.41-5.46,1.85-2.18.51-4.52.9-6.75,1s-4.78.19-7-.44c-2.09-.59-4.06-1.55-6.03-2.46-2.1-.97-4.21-1.95-6.37-2.78s-4.27-1.86-6.52-2.38c-1.84-.43-3.74-.35-5.58-.74-.98-.2-5.1-1.3-3.91-2.89s-1.45-3.04-2.59-1.51h0Z"/><path d="M115.51,100.7c4.16.03,8.17.59,12.21-.74,1.91-.63,3.73-1.48,5.6-2.2s3.77-1.11,5.76-1.49c3.26-.63,7.36-2.04,8.97-5.23.74-1.47.57-3.04.68-4.62.14-1.96,1.11-3.47.6-5.5-.12-.48-.55-.94-1.05-1.05-1.64-.34-3.32-.18-4.97-.46s-3.42-.53-5.13-.84-3.22-.1-4.87-.17-3.05-.91-4.69-.72c-1.9.21-1.92,3.22,0,3,1.45-.16,2.8.6,4.24.71,1.67.13,3.3-.13,4.97.17s3.27.52,4.91.79,3.19.09,4.74.42l-1.05-1.05c.38,1.49-.62,3.17-.71,4.7-.08,1.25.18,2.64-.62,3.71-1.93,2.6-5.79,3.01-8.7,3.58-3.53.68-6.67,2.53-10.08,3.56s-7.17.46-10.81.44c-1.93-.01-1.93,2.99,0,3h0Z"/><path d="M17.81,68.03c-6.13-.2-13.72,1.52-16.05,8-.22.62-.41,1.32-.39,1.98.04,1.51,1.54,2.85,2.57,3.79.92.85,1.94,1.59,2.97,2.3,1.08.75,2.15,1.6,3.46,1.91.95.22,1.58.36,2.4.86.53.32,1.16.51,1.76.67,5.21,1.36,11.11.93,16.38.31,1.89-.22,1.92-3.23,0-3-4.52.53-9.24.8-13.76.16-.65-.09-1.29-.21-1.92-.38-.24-.07-.48-.14-.71-.22.25.09-.46-.24-.21-.1-.64-.38-1.57-.89-2.6-1.09-1.16-.22-1.97-.82-2.94-1.48-.88-.6-1.76-1.21-2.55-1.93-.39-.35-.77-.72-1.12-1.11-.18-.2-.35-.41-.51-.63-.13-.17-.24-.34-.35-.51l.13.31c.04-.19.09.37.02.17-.01-.04,0-.21,0-.25.13-.28-.08.35,0,0,.03-.14.06-.28.1-.43s.09-.28.13-.42c.03-.08.2-.5.08-.22.17-.4.39-.78.62-1.14.46-.71,1.09-1.39,1.83-1.97,2.98-2.32,7.03-2.69,10.67-2.57,1.93.06,1.93-2.94,0-3h0Z"/><path d="M66.82,101.64c.54.58,1.15.91,1.93,1.04.91.15,1.63.4,2.45.84,1.7.91,3.42,1.64,5.23,2.31s3.53,1.53,5.42,1.94c1.76.39,3.56.5,5.35.51,4.02.04,8.2.3,12.11-.82.87-.25,1.7-.61,2.57-.86.93-.27,1.9-.41,2.83-.67,1.73-.48,3.2-1.57,4.99-1.84,1.9-.29,1.09-3.18-.8-2.89-1.68.26-3.05,1.2-4.63,1.73s-3.28.81-4.88,1.36c-3.64,1.25-7.5,1.02-11.29,1-1.63,0-3.27,0-4.88-.29-1.81-.33-3.43-1.07-5.13-1.73s-3.39-1.26-5-2.13c-.72-.39-1.46-.8-2.24-1.07-.56-.19-1.5-.12-1.91-.55-1.32-1.41-3.44.71-2.12,2.12h0Z"/><path d="M7.01,88.85c-.03,2.6-.59,5.47.28,7.99.73,2.11,2.4,3.59,4.02,5.03,1.89,1.69,4.06,3.35,5.38,5.52s2.94,3.88,5.32,5.07c2.09,1.05,4.3,1.78,6.12,3.3s3.44,2.96,5.75,3.6c2.87.79,5.58,2,8.37,3.02s5.69,1.86,8.6,2.52,5.85,1.05,8.79,1.49,5.83.54,8.82.54c6.25,0,12.49,0,18.74,0s12.45,0,18.68,0c1.25,0,2.53.18,3.77.08,1.33-.1,2.35-.74,3.52-1.29,1.96-.93,4.05-1.36,5.81-2.7,1.09-.84,1.77-2.03,2.81-2.88.9-.74,2.08-1.05,3.1-1.59.62-.33,1.13-.86,1.8-1.09s1.38-.18,2.01-.52c.58-.31.84-.77,1.3-1.19.52-.48,1.2-.67,1.79-1.03,2.34-1.43,3.17-4.5,3.77-7,.33-1.38.57-2.78.93-4.16.31-1.18.67-2.45.53-3.67-.22-1.9-3.22-1.92-3,0,.11.98-.18,1.93-.42,2.87-.29,1.09-.5,2.19-.73,3.29-.43,2.04-.92,5.18-2.93,6.27-.47.26-.97.45-1.41.76-.42.3-.65.7-1.03,1.02-.46.38-1.03.32-1.59.47-.65.17-1.17.51-1.72.89-1.79,1.24-3.81,1.64-5.27,3.38-1.33,1.59-2.69,2.55-4.64,3.27-1,.37-2,.71-2.95,1.2-1.24.63-2.1.76-3.5.67-2.83-.17-5.7-.04-8.54-.04h-8.64c-5.95,0-11.9,0-17.85,0-2.87,0-5.78.11-8.65-.02s-5.61-.64-8.36-1.09c-5.53-.92-10.82-2.55-16.03-4.6-1.18-.47-2.37-.92-3.59-1.31s-2.4-.6-3.48-1.3c-1.8-1.15-3.19-2.83-5.09-3.83-2.18-1.15-4.76-1.82-6.59-3.53-1.05-.98-1.61-2.3-2.43-3.45s-1.82-2.01-2.86-2.92c-.92-.8-1.77-1.67-2.68-2.48-.82-.73-1.7-1.47-2.33-2.39-1.56-2.29-.73-5.57-.71-8.16.02-1.93-2.98-1.93-3,0h0Z"/></svg>