<?xml version="1.0" encoding="UTF-8"?><svg id="Capa_1" xmlns="http://www.w3.org/2000/svg" width="177.33" height="155.37" viewBox="0 0 177.33 155.37"><path d="M100.7,10.57c.04-2.96.81-6.42-1.97-8.46C95.81-.03,91.64.1,88.2.17c-3,.06-6.53-.71-9.33.63-1.51.72-2.59,2.11-2.84,3.77-.21,1.43.52,3.28-.18,4.58l1.3-.74c-1.09-.09-2.03-.92-2.85-1.57-1.07-.84-2.13-1.71-3.43-2.18-1.49-.54-3.18-.55-4.73-.83-1.28-.23-2.61-.46-3.91-.37-2.71.19-4.11,2.27-5.03,4.62s-1.86,4.84-1.83,7.32c.03,2.81-4.4-.02-5.54-.47-3.13-1.24-6.46-1.98-9.74-2.67-2.31-.48-5-.92-6.39,1.49-1.18,2.03-.9,4.98-.88,7.23,0,1.61.08,3.22.28,4.82.11.89.25,1.77.45,2.64.06.24.52,2.12.79,1.74-.19.26-1.29.09-1.57.08-.74,0-1.48,0-2.23,0-1.98,0-3.95-.01-5.93-.02s-4.35-.51-6.29.14c-1.01.34-1.84,1.17-1.83,2.3,0,1.46,1.53,2.43,1.37,3.9-.12,1.06-1.16,1.78-1.96,2.35-1,.71-2.08,1.37-2.9,2.29-2.05,2.3-1.48,5.25-.38,7.85.26.61.53,1.19.88,1.75.08.14.41.46.4.61.05-.61-.36-.13-.57-.11-1.3.13-2.78.23-4.03.63-1.5.48-2.83,1.34-4.28,1.95-1.25.52-2.57.9-3.58,1.85-1.18,1.1-1.7,2.76-1.33,4.33s1.5,2.42,2.69,3.41c.45.38.69.47.64,1-.07.7-.69,1.48-.95,2.13-.54,1.35-.57,2.97-.37,4.39.41,2.89,3.03,4.98,5.3,6.53.52.35,1.05.68,1.6.98.26.14.56.25.81.41.22.14.38.32.37.28.05.33-.3.89-.42,1.17-.29.7-.58,1.38-.75,2.13-.43,1.88,2.46,2.68,2.89.8.47-2.04,2.28-4.26.46-6.17-.72-.75-1.73-1.12-2.6-1.65-1.18-.72-2.29-1.56-3.26-2.55-.83-.85-1.4-1.66-1.47-2.87-.07-1.34.24-2.31.79-3.5.51-1.1.94-2.24.5-3.43-.48-1.32-1.74-1.86-2.68-2.79-2.49-2.47,2.9-3.83,4.41-4.59,1.35-.67,2.51-1.1,4.01-1.23,1.27-.11,2.56-.27,3.58-1.09s1.51-2.04.95-3.29-1.37-2.34-1.77-3.74c-.3-1.06-.44-2.17.29-3.08s1.86-1.49,2.79-2.18c2.21-1.65,3.62-3.92,2.56-6.71-.06-.17-.79-1.89-.99-1.85-.01,0-.19.6-.19.61.07.08.24-.07.34-.06.96.12,2.05.02,3.03.08,3.27.18,6.57.01,9.84.04,1.12,0,2.33.1,3.34-.49,1.18-.69,1.64-2.04,1.22-3.3-.52-1.54-.92-2.95-1.08-4.58-.17-1.75-.19-3.52-.17-5.28.01-1.16-.43-4.58,1.28-4.79,1.35-.16,3.03.51,4.33.8,1.59.36,3.18.76,4.74,1.23,1.31.4,2.6.84,3.83,1.44,1.14.56,2.31,1.13,3.58,1.31,1.4.2,2.73-.18,3.72-1.21.51-.54.86-1.21,1.01-1.93s-.06-1.51.04-2.26c.18-1.35.91-2.8,1.33-4.11.34-1.07.77-2.57,1.71-3.29.88-.66,2.43-.33,3.44-.16,1.64.28,3.55.29,5.1.88,1.26.48,2.29,1.52,3.35,2.31,1.18.88,2.39,1.47,3.88,1.6.5.04,1.06-.31,1.3-.74.66-1.23.71-2.47.59-3.84-.11-1.22-.26-2.46.93-3.21,1.05-.66,2.44-.58,3.63-.53,1.27.05,2.53.13,3.8.1,2.91-.05,6.18-.34,8.89.96,2.41,1.16,1.44,4.27,1.41,6.43-.02,1.93,2.98,1.93,3,0h0Z"/><path d="M9.65,83.6c0,2.7.09,5.43-.08,8.13-.13,2.03-.51,4.86,1.24,6.33,1.39,1.16,3.54,1.01,5.19.61,2.04-.5,3.14-2.44,5.05-3.06l-1.9-1.45c-.02,1.96-.59,3.99-1.04,5.89-.35,1.48-.92,2.99-.89,4.53.03,1.44.96,2.73,2.36,3.14,1.33.39,2.74-.02,4-.48.96-.35,2.54-1.32,3.6-1.09s2.15,2.57,2.84,3.47c2.37,3.1,6.85,5.43,10.66,6.11.98.17,1.96.21,2.91-.11.14-.05.3-.11.42-.17.06-.03-.2-.25-.17.03.03.34.34.87.46,1.19.68,1.86,2,3.53,3.2,5.09,1.31,1.7,2.73,3.36,4.42,4.7s3.71,2.36,5.75,3.2,4,1.71,6.14,1.75c1.85.03,3.64-.61,5.19-1.57s3.02-2.31,4.46-3.54c.69-.59,1.37-1.23,2.27-1.47s1.91-.03,2.83.19c2.79.68,5.6.85,8.44,1.21,1.69.22,3.33.7,5.02.94,1.46.2,3.03.23,4.33-.58,1.65-1.03,2.15-2.92,2.35-4.74l-1.5,1.5c1.46-.03,2.96.65,4.28,1.21,1.52.64,3.02,1.33,4.57,1.91,3.63,1.36,8.18,3.07,12.11,2.28,1.81-.36,3.21-1.65,4.45-2.95,1.36-1.43,2.67-2.69,4.44-3.63,3.28-1.74,7.38-2.46,9.69-5.6,2.19-2.97,2.12-6.94,2.17-10.46.03-1.93-2.97-1.93-3,0-.04,2.77.14,5.99-1.41,8.43-.89,1.4-2.36,2.1-3.83,2.77-1.65.74-3.36,1.35-4.97,2.18s-2.98,1.85-4.21,3.11c-1.1,1.13-2.19,2.71-3.77,3.18-1.67.5-3.71-.07-5.35-.45-1.96-.46-3.87-1.11-5.75-1.82-2.99-1.13-6.15-3.22-9.44-3.15-.88.02-1.41.68-1.5,1.5-.12,1.06-.39,2.2-1.57,2.41-1.1.2-2.32-.15-3.39-.38-1.64-.35-3.27-.62-4.94-.79-2.39-.24-4.67-.6-7.02-1.11-1.71-.37-3.4-.4-5.01.39s-2.96,2.29-4.35,3.45c-1.27,1.06-2.68,2.09-4.32,2.46-1.85.41-3.58-.32-5.28-.97-1.95-.75-3.9-1.61-5.59-2.84-1.58-1.14-2.91-2.67-4.11-4.19-1.11-1.4-2.43-2.99-3.03-4.69-.53-1.49-1.3-3.21-3.17-3.16-.74.02-1.33.46-2.08.44-.96-.03-1.94-.42-2.84-.76-1.88-.71-3.71-1.69-5.28-2.96-2.21-1.8-3.39-6.05-6.75-6-1.47.02-2.84.71-4.2,1.2-.53.19-2.28.98-2.59.25-.14-.32.2-1.35.29-1.72.18-.75.41-1.49.58-2.24.47-2.11,1.07-4.31,1.1-6.48.01-.94-.97-1.74-1.9-1.45-1.57.51-2.55,1.64-3.89,2.53-.65.44-2.99,1.27-3.68.48-.4-.45-.22-1.79-.2-2.34.03-.96.12-1.91.16-2.87.08-2.3.01-4.62.01-6.92,0-1.93-3-1.93-3,0h0Z"/><path d="M137.42,106.94c4,.02,8.01.54,12,.18,1.69-.15,2.99-.43,4.19-1.69.55-.59.82-.93,1.67-.83,1.07.12,2.09.3,3.17.32,2.05.04,4.11.03,6.15.03,1.68,0,3.39-.28,4.8-1.25,2.99-2.06,4.21-5.66,4.75-9.09.3-1.86.45-3.77-.15-5.59-.13-.39-.32-.75-.47-1.13-.13-.33-.26-.11.08-.44.48-.47.92-1.08,1.34-1.62,2.07-2.71,2.65-6.99,2.28-10.28-.3-2.7-1.07-6.39-4.16-7.09-.34-.08-1.12-.03-1.36-.21.27.2-.1-.97-.12-1.17-.27-2.06-.05-4.17.04-6.24.2-4.42-.31-9.08-1.44-13.36-.42-1.61-1.09-3.35-2.51-4.33-1.77-1.21-3.67-.42-5.62-.67l1.45,1.1c-.18-.89-.02-1.8,0-2.7.02-1.04-.09-2.07-.22-3.1-.28-2.2-.52-4.37-.57-6.59s-.06-4.33-.35-6.48c-.18-1.3-.07-2.75-.43-4.02-.39-1.39-1.57-2.21-2.9-2.6-1.91-.56-3.63.04-5.49.47-3.6.85-3.69-3.59-6.04-4.99-2.58-1.53-5.71.28-8.17,1.13-3.07,1.07-4.36-2.83-7.08-3.51-1.71-.43-3.78-.05-5.29.82-.38.22-1.24,1.17-1.64,1.11-.24-.03-.68-.75-.85-.98-.81-1.09-1.55-2.32-2.85-2.86s-3.3-.5-4.68-.05c-.79.25-1.51.68-2.25,1.06-.26.14-.73.48-1.03.45-.12,0,0,.03-.21-.14-.52-.44-.74-1.36-1.21-1.88-.54-.6-1.23-.97-2.02-1.13-1.78-.36-3.63.19-5.31.73-1.12.36-2.31.53-3.42.93-.93.34-1.72,1.05-2.7,1.22-1.9.31-1.09,3.21.8,2.89.82-.14,1.5-.55,2.22-.96.84-.47,1.79-.61,2.72-.84,1.5-.38,3.04-1.16,4.62-1.09,1.28.06,1.43,1.5,2.23,2.31,1.08,1.1,2.43,1.15,3.79.59,1.23-.51,2.28-1.35,3.64-1.42.53-.03,1.26-.13,1.74.13.52.28.89.99,1.23,1.45.75,1.03,1.56,2.17,2.86,2.51,1.58.41,2.59-.75,3.83-1.44,1.36-.76,3.01-.85,4.19.21s2.2,2.29,3.75,2.86c2.79,1.02,5.03-1,7.67-1.51.99-.19,1.76-.33,2.28.53.78,1.27,1.37,2.52,2.55,3.5,1.32,1.09,2.91,1.71,4.64,1.44,1.6-.26,3.43-1.3,5.04-.52.91.44.55,2.07.66,2.93.3,2.31.41,4.59.46,6.92s.3,4.7.6,7.06c.27,2.12-.13,4.29.3,6.37.15.7.81,1.02,1.45,1.1,1.2.15,3.21-.61,4.15.32s1.2,2.81,1.47,4.08c.78,3.74,1.12,7.59.93,11.4-.09,1.78-.22,3.57-.07,5.36.11,1.31.23,2.98,1.27,3.92.68.61,1.48.59,2.32.75,1.27.25,1.51,1.57,1.78,2.68.75,3.09.57,7.09-1.22,9.83-.6.92-1.5,1.62-1.98,2.62-.81,1.69.49,2.97.68,4.61s-.18,3.35-.57,4.91-.93,2.96-1.93,4.14c-1.06,1.26-2.31,1.78-3.93,1.82-1.84.05-3.7-.04-5.55-.02-1.13,0-2.23-.04-3.35-.22-.95-.15-1.77-.25-2.68.13-.73.3-1.29.81-1.82,1.37-.57.61-.88.77-1.73.87-4.11.51-8.31-.12-12.43-.14-1.93,0-1.93,2.99,0,3h0Z"/><path d="M37.91,61.76c.04-2.93.77-5.8.68-8.73-.02-.78-.67-1.54-1.5-1.5s-1.5.66-1.5,1.5c.01,2.16,0,4.33,0,6.49h3v-1.17c0-.78-.69-1.54-1.5-1.5s-1.5.66-1.5,1.5v1.17c0,.78.69,1.54,1.5,1.5s1.5-.66,1.5-1.5c0-2.16,0-4.33,0-6.49h-3c.09,2.93-.64,5.81-.68,8.73-.01.78.7,1.54,1.5,1.5s1.49-.66,1.5-1.5h0Z"/><path d="M45.83,54.93v.88c0,1.93,2.99,1.93,3,0,0-1.44.18-2.89.03-4.33-.08-.72-.22-1.4-.44-2.09s-.34-1.12-.27-1.81h-3c0,1.65.04,3.31.42,4.93.29,1.24.85,2.4,1.35,3.56.88,2.02,2.25,4.86,4.9,4.41.8-.14,1.25-1.12,1.05-1.85-.23-.84-1.04-1.19-1.85-1.05.39-.07-.03-.08.36,0-.06-.01-.29-.11-.08,0,.23.11-.03-.02-.07-.06-.25-.21.2.25-.02-.02-.12-.15-.27-.27-.39-.42.21.26-.18-.28-.23-.37-.49-.78-.86-1.62-1.22-2.47-.38-.89-.75-1.76-.95-2.71-.27-1.22-.27-2.6-.28-3.95,0-.81-.69-1.5-1.5-1.5-.88,0-1.41.69-1.5,1.5-.15,1.39.52,2.57.71,3.9.2,1.43-.02,2.9-.03,4.33h3v-.88c0-1.93-3-1.93-3,0h0Z"/><path d="M37.77,77.59c1.84,0,3.69.02,5.53.04,1.75.01,3.55.12,5.28-.18,1.4-.25,2.73-1.01,3.69-2.06s1.29-2.63,2.27-3.69c1.3-1.42-.81-3.55-2.12-2.12-.94,1.02-1.29,2.31-2.06,3.43-.63.91-1.62,1.44-2.7,1.58-1.52.19-3.13.06-4.66.05-1.74-.01-3.48-.03-5.22-.03-1.93,0-1.93,3,0,3h0Z"/><path d="M74.49,123.19v12.16c0,2.08,0,4.15,0,6.23,0,1.7.17,3.45.07,5.14-.09,1.44-1.25,1.49-2.46,1.55-1.61.07-3.13.39-4.72.62-1.77.26-3.58.43-5.37.65-.9.11-1.81.14-2.69.35-.83.2-1.57.52-2.44.46-1.93-.13-1.92,2.87,0,3,.92.06,1.78-.17,2.66-.41.96-.27,1.92-.33,2.91-.46,2.04-.27,4.12-.42,6.14-.77,1.59-.28,3.16-.34,4.75-.54s3.02-.85,3.75-2.32.39-3.39.39-5.02c0-2.25,0-4.49,0-6.74v-13.9c0-1.93-3-1.93-3,0h0Z"/><path d="M83.36,125.23c0,4.64-.09,9.29-.11,13.93-.01,2.32,0,4.64.04,6.96.03,1.6-.16,3.49.38,5.03,1.31,3.74,6.42,1.85,9.16,1.52,2.13-.26,4.26.04,6.39,0,1.83-.04,3.61-.9,5.44-.68s1.9-2.77,0-3c-1.75-.21-3.35.54-5.06.67s-3.63-.13-5.43-.07-3.54.56-5.34.78c-.46.06-1.87.28-2.27-.11-.16-.15-.15-.54-.17-.73-.4-3.89-.16-7.95-.13-11.86.03-4.15.1-8.29.11-12.44,0-1.93-3-1.93-3,0h0Z"/><path d="M129.78,112.27c0,7.24,0,14.49,0,21.73v10.44c0,1.6-.04,3.21.06,4.81.08,1.4.26,2.85-.08,4.22l1.45-1.1c-2.32-.01-4.49-1.09-6.79-1.32-.89-.09-1.76.01-2.65.06-.71.04-1.8.19-2.39-.32-1.46-1.25-3.59.86-2.12,2.12,1.79,1.54,3.94,1.15,6.12,1.1,2.68-.06,5.15,1.34,7.84,1.35.64,0,1.29-.47,1.45-1.1.68-2.83.12-5.99.12-8.88v-10.88c0-7.41,0-14.82,0-22.23,0-1.93-3-1.93-3,0h0Z"/><path d="M140.7,104.08c0,9.49,0,18.97,0,28.46,0,4.63,0,9.27-.01,13.9,0,1.36-.26,3.31.77,4.41.8.85,1.88.7,2.93.55,2.16-.3,4.37-.55,6.55-.73,1.09-.09,2.14-.13,3.22-.36s2-.5,3.06-.37c1.91.23,1.9-2.77,0-3-1.63-.19-3.15.46-4.75.64-2.01.22-4.05.42-6.07.62-.78.08-1.56.13-2.34.24-.18.03-.41.03-.58.08-.27.09-.24-.08-.2.04,0-.03.47.37.43.36.28.07-.03.22.04-.03.05-.19-.05-.6-.06-.81-.03-1.03,0-2.06,0-3.09.04-8.73,0-17.45,0-26.18,0-4.91,0-9.82,0-14.73,0-1.93-3-1.93-3,0h0Z"/></svg>